<svg xmlns="http://www.w3.org/2000/svg" enable-background="new 0 0 850 850" viewBox="0 0 850 850"><polygon fill="#9cd6f2" points="708.62 391.08 719.7 437.39 727.25 426.69 740.24 445.49 751.03 435.97 736.77 417.4 747.91 410.04" class="color9cd6f2 svgShape"/><path fill="#e4f1fa" d="M689.15,552.21H230.41c-5.06,0-9.16-4.1-9.16-9.16V281.67c0-5.06,4.1-9.16,9.16-9.16h458.73          c5.06,0,9.16,4.1,9.16,9.16v261.37C698.31,548.1,694.21,552.21,689.15,552.21z" class="colore4f1fa svgShape"/><path fill="#bbdbf3" d="M698.31,306.36H221.25v-26.36c0-4.14,3.36-7.5,7.5-7.5h462.07c4.14,0,7.5,3.36,7.5,7.5V306.36z" class="colorbbdbf3 svgShape"/><path fill="#ffffff" d="M253.42 290.6c0 2.82-2.04 5.1-4.57 5.1s-4.57-2.28-4.57-5.1 2.04-5.1 4.57-5.1S253.42 287.79 253.42 290.6zM271.16 290.6c0 2.82-2.04 5.1-4.57 5.1-2.52 0-4.57-2.28-4.57-5.1s2.04-5.1 4.57-5.1C269.12 285.5 271.16 287.79 271.16 290.6zM288.91 290.6c0 2.82-2.04 5.1-4.57 5.1-2.52 0-4.57-2.28-4.57-5.1s2.04-5.1 4.57-5.1C286.86 285.5 288.91 287.79 288.91 290.6z" class="colorfff svgShape"/><path fill="#bbdbf3" d="M635.2,477.77H532.37c-9.29,0-16.82-7.53-16.82-16.82v-87.49c0-9.29,7.53-16.82,16.82-16.82H635.2          c9.29,0,16.81,7.53,16.81,16.82v87.49C652.01,470.24,644.48,477.77,635.2,477.77z" class="colorbbdbf3 svgShape"/><path fill="#9cd6f2" d="M170.1,422.96h-62.15c-4.96,0-8.98-4.02-8.98-8.98v-71.55c0-4.96,4.02-8.98,8.98-8.98h62.15           c4.96,0,8.98,4.02,8.98,8.98v71.55C179.08,418.94,175.06,422.96,170.1,422.96z" class="color9cd6f2 svgShape"/><path fill="#ffffff" d="M148.34,371.11c-0.75-0.84-0.75-2.21,0-3.05c0.75-0.84,1.98-0.84,2.73,0l7.72,8.62           c0.75,0.84,0.75,2.21,0,3.05l-7.72,8.62c-0.75,0.84-1.98,0.84-2.73,0c-0.75-0.84-0.75-2.21,0-3.05l6.35-7.1L148.34,371.11z            M120.86,378.21l6.35,7.1c0.75,0.84,0.75,2.21,0,3.05c-0.75,0.84-1.98,0.84-2.73,0l-7.72-8.62c-0.75-0.84-0.75-2.21,0-3.05           l7.72-8.62c0.75-0.84,1.98-0.84,2.73,0c0.75,0.84,0.75,2.21,0,3.05L120.86,378.21z M138.45,368.83           c0.37-1.11,1.49-1.68,2.48-1.26c1,0.42,1.5,1.66,1.13,2.78l-5.79,17.25c-0.37,1.11-1.49,1.68-2.48,1.26           c-1-0.42-1.5-1.66-1.13-2.78L138.45,368.83z" class="colorfff svgShape"/><path fill="#9cd6f2" d="M641.9,333.63H527.05c-6.19,0-11.21-5.02-11.21-11.21V208.19c0-6.19,5.02-11.21,11.21-11.21H641.9            c6.19,0,11.21,5.02,11.21,11.21v114.23C653.11,328.61,648.09,333.63,641.9,333.63z" class="color9cd6f2 svgShape"/><rect width="48.18" height=".69" x="558.42" y="264.96" fill="#ffffff" class="colorfff svgShape"/><rect width="70.35" height=".69" x="536.24" y="281.58" fill="#ffffff" class="colorfff svgShape"/><rect width="99.98" height=".69" x="536.24" y="243.51" fill="#ffffff" class="colorfff svgShape"/><rect width="30.08" height=".69" x="534.9" y="300.69" fill="#ffffff" class="colorfff svgShape"/><rect width="62.22" height=".69" x="574" y="300.69" fill="#ffffff" class="colorfff svgShape"/><rect width="13.46" height=".69" x="534.9" y="264.96" fill="#ffffff" class="colorfff svgShape"/><rect width="33.24" height=".69" x="573.36" y="225.76" fill="#ffffff" class="colorfff svgShape"/><line x1="552.62" x2="547.12" y1="218.77" y2="233.45" fill="#bbdbf3"/><polyline fill="#ffffff" points="541.65 220.93 536.64 226.11 541.65 231.58" class="colorfff svgShape"/><polyline fill="#ffffff" points="559.09 220.93 564.11 226.11 559.09 231.58" class="colorfff svgShape"/><path fill="#9cd6f2" d="M751.03,555.42H608.78V467.6c0-6.04,4.9-10.94,10.94-10.94h120.38c6.04,0,10.94,4.9,10.94,10.94           V555.42z" class="color9cd6f2 svgShape"/><path fill="#bbdbf3" d="M608.78,552.06l34.32-31.45l29.11,24.11l40.51-45.2l38.31,35.8v31.87c0,4.23-3.07,7.66-6.86,7.66            H615.63c-3.79,0-6.86-3.43-6.86-7.66V552.06z" class="colorbbdbf3 svgShape"/><ellipse cx="669.46" cy="495.6" fill="#ffffff" rx="9.26" ry="10.35" class="colorfff svgShape"/><g fill="#000000" class="color000 svgShape"><path fill="#bbdbf3" d="M387.94,637.23H170.37c-6.14,0-11.11-4.98-11.11-11.11V482.6c0-6.14,4.98-11.11,11.11-11.11h217.58          c6.14,0,11.11,4.98,11.11,11.11v143.51C399.06,632.25,394.08,637.23,387.94,637.23z" class="colorbbdbf3 svgShape"/><path fill="#ffffff" d="M221.32,525.47l-2.58-0.5c-0.3-1.25-0.75-2.46-1.33-3.58l1.5-2.39c0.55-0.88,0.46-2.07-0.22-2.83          l-1.54-1.72c-0.69-0.75-1.76-0.83-2.54-0.2l-2.14,1.68c-1.01-0.65-2.09-1.15-3.21-1.49l-0.44-2.94          c-0.16-1.04-0.96-1.81-1.91-1.83h-2.22c-0.96,0-1.79,0.77-1.95,1.83l-0.45,2.87c-1.12,0.34-2.2,0.84-3.21,1.49l-2.13-1.6          c-0.79-0.62-1.86-0.51-2.54,0.25l-1.54,1.72c-0.68,0.76-0.77,1.95-0.22,2.83l1.5,2.39c-0.58,1.13-1.03,2.33-1.33,3.58          l-2.57,0.5c-0.95,0.18-1.64,1.1-1.64,2.18v2.44c0,1.08,0.69,2,1.64,2.18l2.57,0.5c0.3,1.25,0.75,2.46,1.33,3.58l-1.5,2.39          c-0.55,0.88-0.46,2.07,0.22,2.83l1.54,1.72c0.68,0.76,1.75,0.86,2.54,0.25l2.14-1.68c1.01,0.65,2.09,1.15,3.21,1.49          l0.45,2.87c0.16,1.06,0.99,1.84,1.95,1.83h2.22c0.96,0,1.79-0.77,1.95-1.83l0.45-2.87c1.12-0.34,2.2-0.84,3.21-1.49          l2.09,1.64c0.79,0.62,1.86,0.51,2.54-0.25l1.54-1.72c0.68-0.76,0.77-1.95,0.22-2.83l-1.5-2.41          c0.58-1.13,1.03-2.33,1.33-3.58l2.58-0.5c0.95-0.18,1.64-1.1,1.64-2.18v-2.44C222.96,526.57,222.26,525.65,221.32,525.47z           M205.78,535.44c-3.25,0-5.89-2.95-5.89-6.58c0-3.64,2.64-6.58,5.89-6.58c3.25,0,5.89,2.95,5.89,6.58c0,0.01,0,0.02,0,0.04          C211.65,532.52,209.02,535.44,205.78,535.44z" class="colorfff svgShape"/><rect width="61.31" height=".69" x="244.45" y="522.59" fill="#ffffff" class="colorfff svgShape"/><rect width="161.74" height=".69" x="193.39" y="567" fill="#ffffff" class="colorfff svgShape"/><rect width="161.74" height=".69" x="193.39" y="591.83" fill="#ffffff" class="colorfff svgShape"/><rect width="32.37" height=".69" x="244.45" y="542.54" fill="#ffffff" class="colorfff svgShape"/><rect width="58.6" height=".69" x="295.4" y="542.54" fill="#ffffff" class="colorfff svgShape"/></g><g fill="#000000" class="color000 svgShape"><path fill="#109e7c" d="M391.31,447.14c6.18-4.25,13.01-7.45,20.25-9.42c2.72-0.74,17.41,3.53,26.49,3.32        c12.46-0.29,25.15-5.96,35.43-3.4c10.21,2.54,18.56,5.86,23.38,9.3c14.44,10.27,22.91,29.41,28.08,48.38        c-9.78,10.04-22.09,14.5-22.09,14.5l-2.27,92.18l-54.51,27.89l-62.21-31.23l2.23-90.08c0,0-19.76-9.2-21.21-12.55        C363.43,492.67,373.89,459.13,391.31,447.14z" class="color109e7c svgShape"/><path fill="#f4c0b3" d="M365.8 495.62c0 0-26.47 73.4 33.9 103.56 12.54-1.67 7.71-22.48 7.71-22.48s-26.23-5.81-18.35-67.03C381.81 503.7 365.8 495.62 365.8 495.62zM523.67 495.62c0 0 18.22 76.61-33.9 103.56-12.54-1.67-7.71-22.48-7.71-22.48s21.14-10.41 18.35-67.03C507.66 503.7 523.67 495.62 523.67 495.62z" class="colorf4c0b3 svgShape"/><path fill="#5d6072" d="M496.89,604.33H388.91c-3.18,0-5.77-2.6-5.77-5.77v-69.17c0-3.18,2.6-5.77,5.77-5.77h107.98        c3.18,0,5.77,2.6,5.77,5.77v69.17C502.67,601.74,500.07,604.33,496.89,604.33z" class="color5d6072 svgShape"/><path fill="#363b44" d="M555.09,628.27c-13.68-3.14-45.29-1.45-45.29-1.45l-1.29,3.48l-2.13,17.31c0,0,30.11,5.43,44.95,5.41         c1.51,0,2.9-0.23,4.16-0.62c0.45-0.41,0.89-0.83,1.31-1.28C563.11,644.24,561.29,634.13,555.09,628.27z" class="color363b44 svgShape"/><path fill="#363b44" d="M556.45,628.61c-0.43-0.12-0.88-0.23-1.36-0.34c6.19,5.87,8.01,15.97,1.72,22.85         c-0.42,0.46-0.86,0.88-1.31,1.28C566.63,648.93,567.95,631.84,556.45,628.61z" class="color363b44 svgShape"/><path fill="#f4c0b3" d="M500.71,625.84l5.35,0.23c2.88,0.12,5.59,1.52,7.52,3.89c1.93,2.36,2.93,5.49,2.76,8.68         c-0.14,2.54-1.18,4.92-2.9,6.6c-1.72,1.69-3.97,2.54-6.26,2.38l-8.19-0.58L500.71,625.84z" class="colorf4c0b3 svgShape"/><path fill="#363b44" d="M320.7,626.6c13.75-2.72,45.31-0.06,45.31-0.06l1.2,3.52l1.7,17.37c0,0-30.23,4.5-45.07,4.03         c-1.51-0.05-2.89-0.32-4.15-0.75c-0.44-0.42-0.87-0.85-1.28-1.32C312.3,642.32,314.37,632.28,320.7,626.6z" class="color363b44 svgShape"/><path fill="#363b44" d="M319.34,626.9c0.43-0.11,0.89-0.21,1.36-0.3c-6.34,5.68-8.41,15.72-2.29,22.79         c0.41,0.47,0.84,0.9,1.28,1.32C308.66,646.9,307.76,629.78,319.34,626.9z" class="color363b44 svgShape"/><path fill="#f4c0b3" d="M375.12,625.84l-5.36,0.06c-2.88,0.03-5.62,1.35-7.61,3.66c-1.99,2.3-3.06,5.4-2.97,8.59         c0.07,2.54,1.05,4.95,2.73,6.69c1.68,1.74,3.91,2.66,6.2,2.57l8.2-0.33L375.12,625.84z" class="colorf4c0b3 svgShape"/><path fill="#363b44" d="M558.92,574c-6.2-14.28-21.38-16.59-34.29-9.92c-0.22,0.3-82.01,42.21-154.13,60.58        c2.06,6.62,3.13,13.66,3.36,20.59c0.04,1.54,0.02,3.06-0.07,4.56c55.31-2.84,115.33-21.29,166.91-37.5        C556.69,607.16,565.79,589.83,558.92,574z" class="color363b44 svgShape"/><path fill="#363b44" d="M501.11,646.33c-0.22-7.98,1.34-15.41,4.65-22.29c0.09-0.32,0.21-0.62,0.31-0.93        c-4.12-1.28-9.44-3-16.43-5.37c-51.21-17.53-90.28-35.22-127.57-55.6c-14.49-7.91-30.96-2.61-35.59,14.53        c-4.14,15.3,4.95,28.37,18.75,32.96c41.28,13.74,19.79,9.92,33.27,14.26c36.2,11.2,81.25,21.39,122.7,24.18        C501.16,647.49,501.13,646.91,501.11,646.33z" class="color363b44 svgShape"/><path fill="#f4c0b3" d="M411.57,437.72c0,0,5.51,23.87,32.25,23.37c27.24-0.5,29.66-23.45,29.66-23.45l-17.79-3.81l-1.49-19.82        l-26.76,1.98l-0.5,18.83L411.57,437.72z" class="colorf4c0b3 svgShape"/><path fill="#f9b3a0" d="M454.2,414.01l-26.76,1.98l-0.3,11.36c3.18,3.27,7.79,6.31,14.41,7.35c0.01,0.04,0.02,0.06,0.03,0.06        c0.06-0.01,0.11-0.02,0.16-0.03c0.06,0.01,0.11,0.02,0.16,0.03c0.01,0,0.02-0.02,0.03-0.06c5.92-0.93,10.23-3.46,13.35-6.33        L454.2,414.01z" class="colorf9b3a0 svgShape"/><path fill="#363b44" d="M410.79,384.85c-0.11,0.05-2.15-2.66-2.39-5.32c-0.24-2.66,0.12-4.29,0-5        c-0.12-0.71,61.47-16.46,61.53-14.94c0.06,1.52,0.12,1.9,1.19,3.26c1.07,1.36,2.99,3.91,2.54,7.22        c-0.45,3.31-0.39,4.35-1.11,7.5c-0.71,3.15-1.75,6.03-1.79,6.54c-0.04,0.51-4.65,7.99-4.83,8.16        c-0.18,0.16-8.92-13.23-9.81-13.88c-0.89-0.65-25.17-7.33-26.12-7.44c-0.95-0.11-6.55,12.39-6.72,12.66        c-0.18,0.27-5.07,6.95-5.42,7.6c-0.35,0.65-2.49,1.2-2.61,1.03C415.12,392.08,410.79,384.85,410.79,384.85z" class="color363b44 svgShape"/><path fill="#f4c0b3" d="M471.54,384.62c-1.29-0.3-4.53,3.4-4.53,3.4s-0.17-13.17,0-16.12c0.16-2.96-3.89-7.84-4.7-8.43        c-0.81-0.59-2.75-0.15-7.78,0.59c-4.42,0.65-11.1,0.16-12.64,0.03c0-0.02,0-0.03,0-0.03s-0.06,0.01-0.16,0.01        c-0.1-0.01-0.16-0.01-0.16-0.01s0,0.01,0,0.03c-1.53,0.13-8.21,0.62-12.64-0.03c-5.02-0.74-6.96-1.18-7.77-0.59        c-0.81,0.59-4.86,5.48-4.7,8.43c0.16,2.96,0,16.12,0,16.12s-3.23-3.7-4.53-3.4c-1.3,0.3-3.56,2.07-2.27,6.51        c1.3,4.44,2.1,7.99,2.27,9.76c0.16,1.78,1.13,3.7,3.89,3.85c0,0,3.73,9.18,4.86,11.24c1.12,2.06,5.76,14.88,20.87,17.25        c0.01,0.04,0.02,0.06,0.03,0.06c0.06-0.01,0.11-0.02,0.16-0.03c0.06,0.01,0.11,0.02,0.16,0.03c0.01,0,0.02-0.02,0.03-0.06        c15.1-2.37,19.74-15.19,20.87-17.25c1.13-2.07,4.86-11.24,4.86-11.24c2.75-0.15,3.73-2.07,3.89-3.85        c0.16-1.78,0.97-5.33,2.27-9.76C475.11,386.7,472.84,384.92,471.54,384.62z" class="colorf4c0b3 svgShape"/><path fill="#363b44" d="M468.72,368.81l1.57,16c0,0,4.44-15.27,3.86-27.95c-0.58-12.68-12.13-19.64-24.86-18.28        c-12.74,1.36-40.42,0.85-42.46-4.42c0,0-2.21,11.93-1.53,25.32c0.68,13.4,3.92,22.65,5.44,25.16c0,0-0.86-5.14,1.86-4.97        c2.72,0.17,3.89-1.19,3.89-1.19s0.3-11.05,5.8-13.93C422.29,364.56,449.26,374.58,468.72,368.81z" class="color363b44 svgShape"/><path fill="#ffffff" d="M449.95,566.95c0.63,4.28-1.66,8.17-5.94,8.8c-4.28,0.63-8.27-2.32-8.9-6.61       c-0.63-4.28,1.33-8.54,5.61-9.17C445,559.34,449.32,562.67,449.95,566.95z" class="colorfff svgShape"/></g></svg>