<svg xmlns="http://www.w3.org/2000/svg" enable-background="new 0 0 850 850" viewBox="0 0 850 850"><path fill="#b1c3fc" d="M649.35 321c3.21 3.34 3.21 8.34 0 11.55-1.67 1.54-3.59 2.31-5.64 2.31-2.18 0-4.24-.77-5.9-2.31l-36.05-36.56c-.38-.13-.51-.38-.64-.77-.13-.13-.38-.26-.38-.26-.25-.38-.25-.64-.38-1.03-.25-.13-.38-.38-.38-.51-.13-.26-.13-.64-.25-.77 0-.38-.26-.51-.26-.64 0-.38 0-.64 0-.9 0-.26-.13-.38-.13-.77 0-.13.13-.51.13-.64 0-.26 0-.64 0-.9 0-.26.26-.38.26-.51.13-.38.13-.64.25-1.03 0-.13.13-.13.13-.26.25-.38.38-.9.64-1.16 0 0 0-.26.26-.26.13-.26.38-.64.77-.9l36.05-36.56c3.2-3.08 8.46-3.08 11.55 0 3.21 3.21 3.21 8.34 0 11.55l-30.41 30.66L649.35 321zM682.06 325.11l31.43-74.79c1.54-3.59 5.65-5.26 9.37-3.72 3.46 1.41 5.13 5.64 3.59 9.11l-31.43 74.92c-1.15 2.69-3.85 4.23-6.54 4.23-.77 0-1.79-.13-2.56-.51C682.19 332.93 680.52 328.7 682.06 325.11zM788.53 294.96c0 0 0 .13-.13.13-.26.26-.51.64-.9.9l-36.05 36.56c-1.54 1.54-3.72 2.31-5.77 2.31-2.18 0-4.1-.77-5.77-2.31-3.21-3.21-3.21-8.21 0-11.55l30.41-30.66-30.41-30.66c-3.21-3.21-3.21-8.34 0-11.55 3.08-3.08 8.34-3.08 11.55 0l36.05 36.56c.38.26.64.64.9.9.13 0 .13.26.13.26.26.51.52.77.64 1.16 0 .13.13.13.13.26.13.38.13.64.39 1.15 0 .13.13.13.13.38 0 .26 0 .64 0 .9 0 .13.13.51.13.64 0 .13-.13.51-.13.64 0 .38 0 .64 0 1.03 0 .13-.13.13-.13.26-.26.51-.26.9-.39 1.15 0 .13-.13.13-.13.38C789.05 294.06 788.79 294.44 788.53 294.96zM752.57 555.2l19.77-31.87-9.82-6.08c-2.86-1.77-4.36-5.03-4.08-8.38.15-1.81.21-3.64.18-5.47-.07-3.4 1.65-6.59 4.65-8.19l10.12-5.42-17.73-33.06-10.11 5.42c-2.91 1.56-6.46 1.4-9.16-.5-1.64-1.15-3.33-2.2-5.08-3.14-2.91-1.58-4.64-4.69-4.54-8l.36-11.48-37.48-1.16-.35 11.52c-.1 3.32-2.08 6.28-5.09 7.69-.88.41-1.74.85-2.61 1.31-.86.46-1.7.94-2.53 1.45-2.83 1.72-6.37 1.73-9.18-.01l-9.83-6.09-19.77 31.87 9.84 6.11c2.86 1.77 4.35 5.02 4.06 8.37-.16 1.81-.22 3.63-.18 5.46.06 3.4-1.66 6.58-4.65 8.18l-10.12 5.43 17.73 33.06 10.12-5.43c3-1.61 6.59-1.28 9.39.65 1.5 1.04 3.05 2 4.65 2.87 2.95 1.61 4.83 4.65 4.73 8.01l-.36 11.58 37.48 1.16.36-11.51c.1-3.36 2.16-6.29 5.21-7.73.83-.39 1.67-.81 2.49-1.26.82-.44 1.62-.89 2.4-1.37 2.89-1.75 6.48-1.84 9.35-.06L752.57 555.2zM724.24 529.42c-16.51 11.74-39.38 4.84-46.64-14.08-4.95-12.87-.45-27.83 10.79-35.83 16.51-11.74 39.43-4.82 46.69 14.09C740.01 506.48 735.48 521.43 724.24 529.42zM545.58 630.97l22.75-13.13-4.02-6.96c-1.18-2.05-1.07-4.57.22-6.55.71-1.1 1.37-2.23 1.97-3.4 1.07-2.1 3.19-3.45 5.55-3.45h8.04v-26.28h-8.04c-2.36 0-4.48-1.35-5.55-3.45-.6-1.17-1.25-2.31-1.97-3.4-1.29-1.98-1.41-4.5-.22-6.55l4.02-6.96-22.75-13.13-4.03 6.99c-1.18 2.05-3.43 3.18-5.8 3.06-.64-.03-1.29-.05-1.93-.05s-1.29.02-1.93.05c-2.35.12-4.59-1-5.77-3.04l-4.05-7.01-22.75 13.13 4.03 6.98c1.18 2.05 1.07 4.57-.23 6.55-.71 1.09-1.37 2.22-1.96 3.39-1.07 2.1-3.19 3.45-5.55 3.45h-8.04v26.28h8.04c2.36 0 4.48 1.35 5.55 3.45.59 1.17 1.25 2.3 1.96 3.39 1.29 1.98 1.41 4.5.23 6.55l-4.03 6.98 22.75 13.13 4.03-6.99c1.18-2.04 3.42-3.17 5.78-3.05.64.03 1.29.05 1.95.05.65 0 1.29-.02 1.93-.05 2.36-.12 4.62 1.01 5.8 3.06L545.58 630.97zM533.82 605.85c-11.88 0-21.51-9.63-21.51-21.51 0-11.88 9.62-21.53 21.51-21.53s21.53 9.65 21.53 21.53C555.35 596.22 545.7 605.85 533.82 605.85zM423.7 238.09c2.05 1.18 3.18 3.43 3.06 5.8-.03.64-.05 1.29-.05 1.93 0 .65.02 1.3.05 1.95.12 2.36-1 4.6-3.05 5.78l-6.99 4.03 13.13 22.75 6.98-4.03c2.05-1.18 4.57-1.06 6.55.23 1.09.71 2.22 1.37 3.39 1.96 2.1 1.07 3.45 3.19 3.45 5.55v8.04h26.28v-8.04c0-2.36 1.35-4.48 3.45-5.55 1.17-.59 2.3-1.25 3.39-1.96 1.98-1.29 4.5-1.41 6.55-.23l6.98 4.03L510 257.58l-7.01-4.05c-2.04-1.18-3.16-3.42-3.04-5.77.03-.64.05-1.29.05-1.93 0-.65-.02-1.29-.05-1.93-.12-2.36 1.01-4.61 3.06-5.8l7-4.03-13.13-22.75-6.96 4.02c-2.05 1.18-4.57 1.07-6.55-.22-1.1-.71-2.23-1.37-3.4-1.97-2.1-1.07-3.45-3.19-3.45-5.55v-8.04h-26.28v8.04c0 2.36-1.35 4.48-3.45 5.55-1.17.6-2.31 1.25-3.4 1.97-1.98 1.29-4.5 1.41-6.55.22l-6.96-4.02-13.13 22.75L423.7 238.09zM463.35 224.29c11.88 0 21.53 9.65 21.53 21.53 0 11.88-9.65 21.51-21.53 21.51s-21.51-9.62-21.51-21.51C441.84 233.94 451.46 224.29 463.35 224.29z" class="colorB1C3FC svgShape"/><rect width="245.73" height="156.75" x="450.45" y="332.04" fill="#d0dbfd" class="colorD0DBFD svgShape"/><path fill="#b1c3fc" d="M697.74,490.34H448.9V330.49h248.84V490.34z M452.01,487.24h242.63V333.59H452.01V487.24z" class="colorB1C3FC svgShape"/><rect width="245.73" height="29.64" x="450.45" y="332.04" fill="#b1c3fc" class="colorB1C3FC svgShape"/><path fill="#b1c3fc" d="M697.74,363.24H448.9v-32.75h248.84V363.24z M452.01,360.13h242.63v-26.54H452.01V360.13z" class="colorB1C3FC svgShape"/><path fill="#b1c3fc" d="M478.28 347.08c0 4.12-3.34 7.46-7.46 7.46-4.12 0-7.46-3.34-7.46-7.46s3.34-7.46 7.46-7.46C474.94 339.61 478.28 342.96 478.28 347.08zM508.75 347.08c0 4.12-3.34 7.46-7.46 7.46-4.12 0-7.46-3.34-7.46-7.46s3.34-7.46 7.46-7.46C505.41 339.61 508.75 342.96 508.75 347.08zM539.21 347.08c0 4.12-3.34 7.46-7.46 7.46-4.12 0-7.46-3.34-7.46-7.46s3.34-7.46 7.46-7.46C535.87 339.61 539.21 342.96 539.21 347.08z" class="colorB1C3FC svgShape"/><g fill="#000000" class="color000 svgShape"><path fill="#b1c3fc" d="M492.86 420.3c.08-16.35 13.79-29.64 30.3-29.72 7.27 0 13.87 2.39 19.07 6.44 1.98 1.65 2.31 4.54.83 6.61-1.65 2.06-4.7 2.39-6.6.91-3.63-2.97-8.17-4.54-13.29-4.54-5.7 0-10.98 2.31-14.86 5.94-3.72 3.8-6.03 8.75-6.03 14.37 0 5.61 2.31 10.73 6.03 14.37 3.88 3.63 9.16 5.94 14.86 5.94 5.12 0 9.58-1.57 13.29-4.54 1.9-1.4 4.95-1.07 6.6.91 1.49 2.06 1.16 5.04-.83 6.6-5.2 4.05-11.81 6.44-19.07 6.44C506.65 450.02 492.95 436.73 492.86 420.3zM557.26 435.65c1.49-1.82 4.21-2.06 6.03-.58 3.63 2.97 9.91 6.44 15.77 6.36 4.13 0 7.84-1.24 10.32-3.05 2.48-1.82 3.55-3.88 3.55-5.94 0-1.07-.25-1.82-.74-2.64-.49-.83-1.24-1.65-2.48-2.48-2.4-1.57-6.44-2.97-11.31-3.88h-.17c-3.88-.74-7.51-1.73-10.65-3.22-3.14-1.49-5.86-3.55-7.68-6.44-1.24-1.98-1.9-4.29-1.9-6.77 0-4.95 2.81-9.25 6.6-12.05 3.88-2.81 8.92-4.38 14.28-4.38 7.93 0 13.79 3.88 18 6.6 1.9 1.32 2.48 3.96 1.16 5.86-1.24 1.98-3.88 2.56-5.86 1.24-4.21-2.81-8.26-5.28-13.29-5.28-3.72 0-7.02 1.16-9.25 2.81-2.23 1.65-3.14 3.47-3.14 5.2 0 .99.17 1.65.58 2.31.41.66 1.16 1.4 2.23 2.15 2.14 1.49 5.86 2.81 10.32 3.63h.16c4.21.82 8.09 1.9 11.4 3.47 3.39 1.65 6.35 3.8 8.25 6.85 1.24 1.98 1.98 4.46 1.98 7.02 0 5.28-2.97 9.83-7.1 12.8-4.05 2.97-9.41 4.71-15.28 4.71-8.91-.08-16.43-4.54-21.14-8.26C556.11 440.19 555.86 437.47 557.26 435.65zM611.5 435.65c1.49-1.82 4.21-2.06 6.03-.58 3.63 2.97 9.91 6.44 15.77 6.36 4.13 0 7.84-1.24 10.32-3.05 2.48-1.82 3.55-3.88 3.55-5.94 0-1.07-.25-1.82-.74-2.64-.49-.83-1.24-1.65-2.48-2.48-2.4-1.57-6.44-2.97-11.31-3.88h-.17c-3.88-.74-7.51-1.73-10.65-3.22-3.14-1.49-5.86-3.55-7.68-6.44-1.24-1.98-1.9-4.29-1.9-6.77 0-4.95 2.81-9.25 6.6-12.05 3.88-2.81 8.92-4.38 14.28-4.38 7.93 0 13.79 3.88 18 6.6 1.9 1.32 2.48 3.96 1.16 5.86-1.24 1.98-3.88 2.56-5.86 1.24-4.21-2.81-8.26-5.28-13.29-5.28-3.72 0-7.02 1.16-9.25 2.81-2.23 1.65-3.14 3.47-3.14 5.2 0 .99.17 1.65.58 2.31.41.66 1.16 1.4 2.23 2.15 2.14 1.49 5.86 2.81 10.32 3.63h.16c4.21.82 8.09 1.9 11.4 3.47 3.39 1.65 6.35 3.8 8.25 6.85 1.24 1.98 1.98 4.46 1.98 7.02 0 5.28-2.97 9.83-7.1 12.8-4.05 2.97-9.41 4.71-15.28 4.71-8.91-.08-16.43-4.54-21.14-8.26C610.35 440.19 610.1 437.47 611.5 435.65z" class="colorB1C3FC svgShape"/></g><g fill="#000000" class="color000 svgShape"><polygon fill="#b1c3fc" points="621.41 515.37 631.87 540.65 621.42 544.97 610.9 519.53 593.62 532.93 593.62 461.73 643.46 512.08" class="colorB1C3FC svgShape"/><path fill="#b1c3fc" d="M593.62 453.96c-.5-1.19-.61-2.39-.63-3.58.02-1.19.13-2.39.63-3.58.5 1.19.61 2.39.63 3.58C594.23 451.58 594.12 452.77 593.62 453.96zM587.45 456.52c-1.2-.49-2.12-1.26-2.98-2.08-.83-.86-1.6-1.78-2.08-2.98 1.2.49 2.12 1.25 2.98 2.08C586.2 454.4 586.96 455.32 587.45 456.52zM584.9 462.68c-1.19.5-2.39.61-3.58.63-1.19-.02-2.39-.13-3.58-.63 1.19-.5 2.39-.61 3.58-.63C582.51 462.07 583.71 462.18 584.9 462.68zM587.45 468.85c-.49 1.2-1.26 2.12-2.08 2.98-.86.83-1.78 1.6-2.98 2.08.49-1.2 1.25-2.12 2.08-2.98C585.33 470.11 586.26 469.34 587.45 468.85zM602.34 462.68c1.19-.5 2.39-.61 3.58-.63 1.19.02 2.39.13 3.58.63-1.19.5-2.39.61-3.58.63C604.73 463.3 603.53 463.18 602.34 462.68zM599.79 456.52c.49-1.2 1.26-2.12 2.08-2.98.86-.83 1.78-1.6 2.98-2.08-.49 1.2-1.25 2.12-2.08 2.98C601.91 455.26 600.98 456.03 599.79 456.52z" class="colorB1C3FC svgShape"/></g><g fill="#000000" class="color000 svgShape"><path fill="#222b2b" d="M354.54,209.94c0,0,19.15-9.5,31.71,9.63c5.95,9.07-0.97,31.64,8.34,40.38      c10.1,9.48,4.06,22.61-9.75,21.45c-11.64-0.98-23.99,7.08-37.98,3.16c0,0-12.42-43.53-10.72-60.87      C337.83,206.35,354.54,209.94,354.54,209.94z" class="color222B2B svgShape"/><polygon fill="#f4c3a2" points="256.03 371.04 256.33 371.12 261.36 372.46 267.67 370.29 270.53 366.78" class="colorF4C3A2 svgShape"/><path fill="#f4c3a2" d="M316.09,345.72c-8.12,1.78-35.43,4.8-35.43,4.8l-9.28-3.65c0,0-5.77-0.7-7.05-0.94         c-1.28-0.24-6.19,1.76-8.12,1.78c-1.93,0.03,1.04,2.24,4.76,1.87c3.72-0.37,6.07,1.34,6.07,1.34l-5.89,4.49         c0,0-12.94,1.46-14.31,3.54c-1.37,2.08-2.02,2.35,1.13,2.02c3.15-0.33,14.1-2.31,14.1-2.31l-6.34,3.53         c0,0-3.54-0.08-7.23,1.61c-3.69,1.69-2.88,3.84-2.88,3.84l12.52-1.1l7.14-3.48l-4.67,4.19c0,0-4.05,0.5-6.19,1.76         c-2.14,1.25-3.48,2.56-3.48,2.56l1.82,0.98l11.01-3.53c0,0,1.79,1.75,3.9,1.27c2.11-0.48,6.4-2.98,6.4-2.98         s9.25-1.86,10.56-4.49c1.31-2.63,20.96-4.33,28.28-4.08L316.09,345.72z" class="colorF4C3A2 svgShape"/><path fill="#ffffff" d="M288.04,348.43l-4.75,1.68c0,0,1.27-0.82,1.81,2.39c0.53,3.21,0,10.69,0,10.69s5.48,0.71,6.82-1.25        c1.34-1.96-3.61-13.19-3.61-13.19L288.04,348.43z" class="colorFFF svgShape"/><path fill="#ff7e7e" d="M351.06,306.82l-4.87-28.74c0,0-0.23,0.19-0.63,0.57c-1.3,1.22-4.41,4.38-7.25,9.17       c-3.05,5.15-18.47,38.92-23.81,50.67c-9.5,2.54-27.56,10.34-27.56,10.34c3.36-0.12,2.12,14.15-1.84,14.37       c0,0,2.91,2.45,39.37-4.85c1.51-0.3,2.59-2.24,3.21-5.33C334.43,341.67,349.62,315.44,351.06,306.82z" class="colorFF7E7E svgShape"/><path fill="#4d4c5c" d="M368.92,638.25c-2.32,1.86-11.94,0.06-16.62-0.95c-0.4,1.03-0.73,1.69-1.03,2.19         c-0.93,1.55-1.86,5.26-1.55,7.43c0.31,2.17,1.55,3.1,1.55,3.1s8.36,1.51,12.69-1.1c4.33-2.61,6.19-3.54,6.19-3.54         s3.09-20.12,4.33-23.22c1.24-3.1,2.79-5.57,2.79-5.57s-0.55-2.2-0.94-5.18c-0.5,1.28-1.23,2.85-2.31,4.72         C370.47,622.3,372.01,635.77,368.92,638.25z" class="color4D4C5C svgShape"/><path fill="#f4c3a2" d="M389.97 537.64c-3.09-15.48-5.88-20.74-6.19-22.6-.31-1.86-.31-14.24-.31-14.24l-23.87-.9c-.22 3.8-1.24 23.18.83 25.97 2.3 3.09 4.47 3.09 5.09 13 .62 9.91-2.17 61.29-2.17 61.29s-4.95 13-7.43 23.84c-1.68 7.34-2.79 11.12-3.62 13.28 4.68 1.02 14.3 2.81 16.62.95 3.1-2.48 1.55-15.94 5.11-22.13 1.07-1.87 1.8-3.43 2.31-4.72-.12-.9-.22-1.87-.3-2.87C375.73 604.2 393.06 553.12 389.97 537.64zM333.94 636.39c.62-3.41 1.86-10.22 5.88-14.86 3.12-3.6 6.05-6.66 7.35-12.03-.32-.97-.54-1.59-.54-1.59s-4.33-4.17-5.88-8.74c-1.55-4.57 4.64-41.1 4.64-47.6 0-6.5-5.26-26.93-5.26-26.93l5.26-26.62h-26.62c0 0-3.41 22.29-2.48 24.76.93 2.48 3.42 9.91 3.41 15.79-.01 5.77 5.85 75.82 5.88 76.15l-2.79 21.98c0 0-.58 1.72-1.99 3.4h6.01C326.82 640.1 333.32 639.79 333.94 636.39z" class="colorF4C3A2 svgShape"/><path fill="#4d4c5c" d="M347.18,609.5c-1.3,5.37-4.23,8.43-7.35,12.03c-4.02,4.64-5.26,11.45-5.88,14.86         c-0.62,3.4-7.12,3.71-7.12,3.71h-6.01c-1.13,1.35-2.79,2.68-5.13,3.1c-5.26,0.93-3.41,5.26-2.48,5.57         c0.93,0.31,18.88,0,18.88,0s5.26-15.17,7.74-17.95c2.48-2.79,5.26-5.26,5.26-5.26l-1.55,21.98l1.55-0.93l2.48-23.53         c0,0,2.17,0.54,2.17-2.98C349.73,617.51,348.06,612.17,347.18,609.5z" class="color4D4C5C svgShape"/><path fill="#191e28" d="M392.96,416.51c-4.54-11.97-4.95-26.41-4.95-26.41l-3.3-10.91c0,0-25.59,10.49-35.49,10.91        c-9.91,0.41-17.56-0.83-17.56-0.83l-2.26,40.86c-2.06,9.91-13.26,75.53-13.26,75.53s22.76,3.71,39.68,2.06        c16.92-1.65,38.8-4.54,38.8-4.54S397.5,428.48,392.96,416.51z" class="color191E28 svgShape"/><path fill="#f4c3a2" d="M354.41,256.91c0,0,6.91,8.76,6.94,14.12c0.03,5.36,1.46,10.54,1.46,10.54s1.07,6.43,4.65,3.93      c3.57-2.5,16.08-19.3,16.08-19.3l-8.76-21.26L354.41,256.91z" class="colorF4C3A2 svgShape"/><path fill="#ffffff" d="M362.99,285.5l-1.64-10.18c0,0-5.15,5.09-8.01,10.76c-2.86,5.68-10.19,27.48-10.72,39.45      c-0.54,11.97,1.61,13.04,1.61,13.04L362.99,285.5z" class="colorFFF svgShape"/><path fill="#ffffff" d="M379.07,264.95l8.58,6.61c0,0-14.12,15.01-20.01,25.73c-5.9,10.72-24.41,43.24-24.41,43.24l19.76-61.83      L379.07,264.95z" class="colorFFF svgShape"/><path fill="#dfdfdf" d="M362.99,278.71c0,0,12.87-12.15,14.65-14.83c1.79-2.68,2.68-3.93,2.68-3.93l4.29,8.04l-20.73,20.37      C363.88,288.36,362.07,287.56,362.99,278.71z" class="colorDFDFDF svgShape"/><polygon fill="#dfdfdf" points="357.09 279.61 359.52 288.78 362.99 279.43 361.21 269.6" class="colorDFDFDF svgShape"/><path fill="#ff3e3e" d="M388.9,360.56c-1.07-4.65,11.08-23.59,11.08-23.59l4.47-52.41l-2.56-2.42l-16.91-15.94l-5.49,6.83      l-31.14,57.68c0,0-4.29,40.92-6.08,45.03c-1.79,4.11-0.72,31.63,2.14,34.49c1.54,1.54,22.43,6.42,33.93,5.98      c9.79-0.37,18.6-0.98,18.6-0.98s3.57-16.44,3.04-24.3C399.44,383.07,389.97,365.2,388.9,360.56z" class="colorFF3E3E svgShape"/><path fill="#191e28" d="M377.64,271.74l7.33-7.68l6.79,5.9l-8.04,14.6l-5.18,1.3l1.61,1.97l-31.81,42.89      c0,0,11.09-29.47,17.87-40.38C372.99,279.42,377.64,271.74,377.64,271.74z" class="color191E28 svgShape"/><path fill="#ff3e3e" d="M359.74,273.16c0,0-10.33,23.96-11.41,32.89c-1.07,8.93,0.36,25.37,0.36,29.13      c0,3.75-0.97,28.52-5.73,43.78c-5.36,17.15-9.81,32.7-9.81,32.7h-6.97c0,0,4.65-36.63,9.83-49.14      c5.18-12.51,3.39-11.75,3.57-19.81c0.18-8.06-5.18-20.75-3.93-26.11c1.25-5.36,6.35-16.62,6.93-20.73      c0.58-4.11,3.62-17.79,3.62-17.79L359.74,273.16z" class="colorFF3E3E svgShape"/><path fill="#191e28" d="M360.67,270.14l-9.65,9.47l2.68,1.07l-4.11,2.68c0,0-7.33,17.33-6.25,23.05      c1.07,5.72,5.36,28.77,5.36,28.77s-1.07-24.66,0.71-29.66C351.2,300.51,360.67,270.14,360.67,270.14z" class="color191E28 svgShape"/><path fill="#f4c3a2" d="M393.91,430.48l-8.82,13.28l0.17,9.05l1.97,4.53c0,0,2.38-2.62,2.26-4.53c-0.12-1.91,0-6.91,0-6.91h2.21      c0,0,0.74,4.46-1.01,11.15c-1.12,4.3-6.65,11.09-4.53,11.92c2.03,0.8,3.41-1.43,3.41-1.43s-0.75,1.67,1.63,0.95      c2.38-0.71,2.38-1.19,2.38-1.19s0.48-1.82,2.38-2.06c1.91-0.24,2.14-1.19,2.14-1.19s0,1.91,1.43,0.95      c0.5-0.33,4.23-3.08,5.72-6.06c2.82-5.62,3.88-10.43,3.88-10.43L407.5,431L393.91,430.48z" class="colorF4C3A2 svgShape"/><polygon fill="#ffffff" points="393.9 426.37 392.95 431.14 409.39 434 409.39 428.52" class="colorFFF svgShape"/><path fill="#ff7e7e" d="M393.9,363.74c0,0-6.08-31.42-4.29-42.5c1.79-11.08,9.76-40.62,14.19-37.28c5,3.76,7.97,8.34,7.97,15.13      c0,6.79,0.71,86.13,1.43,91.85c0.71,5.72-2.86,41.26-2.86,41.26l-18.58-4.09L393.9,363.74z" class="colorFF7E7E svgShape"/><path fill="#d6ab8e" d="M361.12,269.22c11.79,0.39,13.54-13.14,14.24-18.5l-0.58-5.78l-20.37,11.97      C354.41,256.91,359.93,263.9,361.12,269.22z" class="colorD6AB8E svgShape"/><path fill="#f4c3a2" d="M364.03,209.44c-26.33-0.47-22.06,29.13-22.01,29.87c0.9,13.81,11.31,28.65,17.47,27.6      c18.68-3.21,17.88-22.15,17.88-22.15c0.19-1.17,5.39-13.56,5.4-14.79C382.94,215.65,379.42,209.71,364.03,209.44z" class="colorF4C3A2 svgShape"/><path fill="#f4c3a2" d="M385.07,243.52c-0.2,3.67-3.04,6.5-6.36,6.32c-3.31-0.18-5.84-3.3-5.64-6.96      c0.2-3.67,3.04-6.5,6.36-6.32C382.75,236.73,385.27,239.85,385.07,243.52z" class="colorF4C3A2 svgShape"/><path fill="#222b2b" d="M349.2,218.63c0,0,3.49,17.4,25.92,13.98l0.98,5.34l5.11-1.72c0,0,6.44-13.7,0.11-21.95      c-4.01-5.22-12.74-5.88-14.22-6.02c-1.68-0.16-2.97-0.1-3.72-0.06c-2.72,0.13-9.33,0.4-15.06,4.75      c-8.9,6.76-9.72,18.58-9.88,20.75C338.43,233.7,345.27,236.91,349.2,218.63z" class="color222B2B svgShape"/><path fill="#f4c3a2" d="M107.6,346.78c-5.53-18.55-19.81-50.33-11.48-55.88c10.86-7.23,42.11-11.71,42.11-11.71l0,0.59      c0,0,31.53,2.84,42.4,10.04c8.34,5.52-6.12,38.89-11.59,57.45c-1.31,4.45-1.14,24.42-0.61,42.12      c0.13,4.37,3.39,24.44,2.85,32.74c-0.16,2.48-25.67,17.86-32.83,18.26l0-0.59c-7.15-0.38-32.71-15.68-32.88-18.15      c-0.56-8.3,2.64-28.38,2.76-32.75C108.8,371.19,108.92,351.23,107.6,346.78z" class="colorF4C3A2 svgShape"/><path fill="#ffbd95" d="M103.67,289.28c5.79,3.07,6.66,14.51,0.97,26.02c-5.69,11.5-10.73,18.67-12.27,21.62      c-1.6,3.04-9.65,21.44-12.52,25.96c-2.87,4.53-9.14,8.55-13.63,5.9c-3.76-2.21-7.94-4.1-5.36-13.17      C63.43,346.55,85.39,279.59,103.67,289.28z" class="colorFFBD95 svgShape"/><path fill="#f4c3a2" d="M125.01,273.7c0.72-3.54,2.49-21.01,2.49-21.01l10.62-0.02l0,0.59l10.62-0.02c0,0,1.82,17.47,2.55,21.01      c0.72,3.53,9.47,8.85,9.47,8.85l-22.6,0.04l0-0.59l-22.6,0.04C115.56,282.58,124.29,277.24,125.01,273.7z" class="colorF4C3A2 svgShape"/><path fill="#ffbd95" d="M155.25,402.65c12.96-0.06,18.01,9.79,17.7,40.03c-0.32,30.24-4.41,63.03-6.2,67.75      c-1.79,4.72-20.16,4.84-21.97,2.1c-1.8-2.75-6.39-65.47-6.4-75.29C138.36,427.42,141.13,402.72,155.25,402.65z" class="colorFFBD95 svgShape"/><path fill="#ffbd95" d="M146.65,534.86l19.03-0.53c0.85-0.02,1.54-0.81,1.51-1.75l-0.69-29.57c-0.02-0.94-0.74-1.68-1.59-1.66      l-19.03,0.53c-0.85,0.02-1.54,0.81-1.51,1.75l0.69,29.57C145.08,534.14,145.79,534.88,146.65,534.86z" class="colorFFBD95 svgShape"/><path fill="#ffbd95" d="M156.3 516.13c3.96-.01 13.68 1.41 13.18 29.6-.5 28.19-11.43 66.82-11.43 66.82l-9.36.02c0 0-4.64-52.18-4.68-62.19C143.94 527.59 143.79 516.15 156.3 516.13zM121.05 402.91c-12.89-1.52-18.84 7.71-21.38 37.83-2.54 30.11-3.73 63.19-2.39 68.09 1.34 4.89 19.6 7.08 21.65 4.55 2.05-2.53 14.7-64.41 15.64-74.17C135.51 429.44 135.09 404.56 121.05 402.91z" class="colorFFBD95 svgShape"/><path fill="#ffbd95" d="M114.97,535.38l-18.88-2.66c-0.86-0.12-1.46-0.98-1.35-1.91l3.48-29.34c0.11-0.92,0.89-1.58,1.73-1.46      l18.88,2.67c0.85,0.12,1.45,0.97,1.34,1.91l-3.48,29.34C116.6,534.84,115.82,535.49,114.97,535.38z" class="colorFFBD95 svgShape"/><path fill="#ffbd95" d="M107.13 515.66c-3.94-.45-13.74-.14-15.91 27.96-2.16 28.1 2.08 67.75 2.08 67.75l9.31 1.07c0 0 12.53-51.39 13.51-61.34C118.35 528.45 119.57 517.09 107.13 515.66zM177.25 290.36c-6.11 2.19-8.4 13.4-4.18 25.64 4.21 12.24 8.32 20.08 9.49 23.23 1.21 3.25 6.91 22.66 9.2 27.57s8 9.81 12.78 7.86c4-1.64 8.38-2.89 6.94-12.26C210.03 353.03 196.57 283.45 177.25 290.36z" class="colorFFBD95 svgShape"/><path fill="#2a2c51" d="M93.03,291.25c1.42-2.59,9.07-4.73,16.12-7.12c6.21-2.11,11.22-4.96,11.22-4.96l3.92,2.26      c8.62,5.36,19.2,5.35,27.8-0.05l3.35-2.1c0,0,5.57,2.65,11.79,4.74c7.06,2.37,14.93,4.35,16.14,7.07      c1.23,2.75-11.34,55.62-12.76,60.11c-1.41,4.5,2.26,35.94-1.32,45.35l-30.92,1.1v0l-0.06,0h-0.01v0l-30.92-1      c-2.84-10.78,0.02-41.45-1.41-45.94C104.57,346.24,90.66,295.57,93.03,291.25z" class="color2A2C51 svgShape"/><path fill="#1a192d" d="M174.73,435.02c-0.74-13.55-5.43-38.45-5.43-38.45l-30.98,1.1l-30.66-1.8c0,0-7.02,24.24-9.03,37.63      c-2.01,13.39-3.8,72.98-4.41,79.46c-0.6,6.49-2.92,26.36-4.42,45.93c-1.5,19.57-3.5,58.55-3.5,58.55l22.98,2      c0,0,10.9-82.56,12.15-95.54c1.25-12.98,16.69-71.41,16.69-71.41s3.24,57.96,3.26,69.64c0.02,13.05,0.17,96.06,0.17,96.06      l23.04,0.59c0,0,4.59-38.66,4.95-58.29c0.35-19.64-0.08-39.66-0.06-46.18C169.48,507.8,175.47,448.57,174.73,435.02z" class="color1A192D svgShape"/><path fill="#4d4c5c" d="M162.16 618.73c0 0 7.88 10.03 7.46 12.68-.24 1.51-3.56 6.97-9.59 7.38-4.59.31-12.07-4.25-13.24-4.39-2.7-.3-2.69-16.14-2.69-16.14L162.16 618.73zM89.52 617.75c0 0-8.78 9.1-8.62 11.78.09 1.53 2.88 7.34 8.84 8.42 4.53.82 12.41-2.88 13.58-2.88 2.71 0 4.2-15.75 4.2-15.75L89.52 617.75z" class="color4D4C5C svgShape"/><path fill="#2a2c51" d="M183.28 290.02c0 0 8.08 2.09 15.02 17.81 6.93 15.73 13.02 48.25 13.02 48.25s-4.18 3.94-12.19 6.58c-8.01 2.63-11.47 1.94-11.47 1.94l-10.44-33.47C177.23 331.13 173.34 291.14 183.28 290.02zM98.21 287.92c0 0-8.24 1.15-16.64 16-8.41 14.85-20.13 46.07-20.13 46.07s3.73 4.39 11.44 7.93c7.71 3.54 11.43 3.44 11.43 3.44l15.99-31.86C100.29 329.5 108 290.17 98.21 287.92z" class="color2A2C51 svgShape"/><path fill="#f4c3a2" d="M210.98 364.67c-1.59-5.43-4.06-9.42-10.44-7.61-6.39 1.81-19.95 10.61-19.95 10.61l2.58 8.79c0 0 14.58 3.53 18.15 2.92C204.87 378.76 215.14 378.9 210.98 364.67zM60.38 361.83c-.62-5.67 1.6-10.69 16.05-13.4 14.45-2.71 48.68-4.27 48.68-4.27l1 9.17c0 0-27.5 12.69-35.28 14.54C83.05 369.72 61.99 376.67 60.38 361.83z" class="colorF4C3A2 svgShape"/><path fill="#f4c3a2" d="M118.25 354.51c0 0 7.6 3.72 10.03 4.11 2.43.4 11.28-.82 13.24-.76 3.27.1 10.45 7.23 10.81 4.86s-6.2-12.15-6.2-12.15-9.21-7.76-13.09-7.6S122 344.32 122 344.32L118.25 354.51zM194.76 366.25c0 0-8.13-2.01-10.58-1.88-2.45.13-10.91 3.22-12.85 3.59-3.22.61-13.61-.54-13.54 1.86.08 2.4 11.5 6.89 11.5 6.89s6.7 1.86 12.75 1.43c3.88-.27 10.87-1.09 10.87-1.09L194.76 366.25z" class="colorF4C3A2 svgShape"/><polygon fill="#b1c3fc" points="129.94 362.8 187.8 362.98 221.71 366.86 155.91 366.86" class="colorB1C3FC svgShape"/><polygon fill="#b1c3fc" points="155.91 366.86 223.46 366.86 231.06 311.46 163.51 311.46" class="colorB1C3FC svgShape"/><polygon fill="#b1c3fc" points="155.91 371.11 129.94 367.05 129.94 362.8 155.91 366.86" class="colorB1C3FC svgShape"/><rect width="67.48" height="4.25" x="155.91" y="366.86" fill="#b1c3fc" transform="rotate(-180 189.649 368.982)" class="colorB1C3FC svgShape"/><path fill="#f4c3a2" d="M181.1 375.29c0 0-7.29-2.24-7.5-3.72-.21-1.48-7.82-5.84-8.13-6.74-.31-.9 3.41-1.69 6.16-.46 2.75 1.23 4.49.97 5.52 1 1.03.03 5.34-1.83 8.8.05 3.46 1.88 3.75 5.09 3.65 6.41C189.49 373.16 183.35 377.49 181.1 375.29zM121.68 245.19c-1.63-5.06-5.49-3.89-5.85-3.77-.38.04-4.37.64-3.68 5.91.69 5.3 3.77 8.17 6.65 7.33C121.77 254.19 123.32 250.28 121.68 245.19zM154.23 245.19c1.63-5.06 5.49-3.89 5.85-3.77.38.04 4.37.64 3.68 5.91-.69 5.3-3.77 8.17-6.65 7.33C154.15 254.19 152.59 250.28 154.23 245.19z" class="colorF4C3A2 svgShape"/><path fill="#d6ab8e" d="M150.66,270.06c-0.83-6.37-1.92-16.82-1.92-16.82l-10.62,0.02l0-0.59l-10.62,0.02      c0,0-1.11,10.89-1.93,17.22c3.49,3.68,10.54,8.48,15.29,8.18C145.55,278.38,147.19,273.64,150.66,270.06z" class="colorD6AB8E svgShape"/><path fill="#f4c3a2" d="M117.72,237.53c2.02-22.18,18.88-20.93,20.47-20.77c1.59-0.17,18.45-1.41,20.47,20.77      c2.03,22.31-7.9,36.88-20.47,36.08C125.63,274.4,115.69,259.83,117.72,237.53z" class="colorF4C3A2 svgShape"/><path fill="#222b2b" d="M116.91,221.95c0,0-4.57,2.94-1.3,13.05l1.96,11.42l1.63,0.33c0,0-0.65-17.29,4.89-21.2      C129.64,221.62,116.91,221.95,116.91,221.95z" class="color222B2B svgShape"/><path fill="#222b2b" d="M151.82,223.58c0,0-21.86,12.72-33.6,2.61c-11.74-10.11,0.65-15.33,5.55-14.68c0,0-1.63-5.55,4.89-6.2      c6.52-0.65,5.22,5.87,15.01,5.87s14.68,0.65,13.7,8.81c0,0,4.89-2.94,6.52,2.61s-4.57,23.81-4.57,23.81l-0.65,2.94h-1.63v-15.66      C157.04,233.69,150.84,235.65,151.82,223.58z" class="color222B2B svgShape"/></g></svg>